<?xml version="1.0" encoding="UTF-8" standalone="no"?>
<!-- Created with Inkscape (http://www.inkscape.org/) -->

<svg
   xmlns:dc="http://purl.org/dc/elements/1.1/"
   xmlns:cc="http://creativecommons.org/ns#"
   xmlns:rdf="http://www.w3.org/1999/02/22-rdf-syntax-ns#"
   xmlns:svg="http://www.w3.org/2000/svg"
   xmlns="http://www.w3.org/2000/svg"
   xmlns:sodipodi="http://sodipodi.sourceforge.net/DTD/sodipodi-0.dtd"
   xmlns:inkscape="http://www.inkscape.org/namespaces/inkscape"
   id="svg2"
   version="1.1"
   inkscape:version="0.48.3.1 r9886"
   width="600"
   height="205.33"
   sodipodi:docname="eyes.svg">
  <metadata
     id="metadata8">
    <rdf:RDF>
      <cc:Work
         rdf:about="">
        <dc:format>image/svg+xml</dc:format>
        <dc:type
           rdf:resource="http://purl.org/dc/dcmitype/StillImage" />
        <dc:title />
      </cc:Work>
    </rdf:RDF>
  </metadata>
  <defs
     id="defs6" />
  <sodipodi:namedview
     pagecolor="#ffffff"
     bordercolor="#666666"
     borderopacity="1"
     objecttolerance="10"
     gridtolerance="10"
     guidetolerance="10"
     inkscape:pageopacity="0"
     inkscape:pageshadow="2"
     inkscape:window-width="1855"
     inkscape:window-height="1056"
     id="namedview4"
     showgrid="false"
     inkscape:zoom="0.31466667"
     inkscape:cx="1156.3248"
     inkscape:cy="253.82176"
     inkscape:window-x="65"
     inkscape:window-y="24"
     inkscape:window-maximized="1"
     inkscape:current-layer="svg2" />
  <path
     style="fill:#fff"
     d="M 515.23171,300.76162 C 391.28753,284.20221 351.05867,278.66074 241.96024,206.23736 c 114.06718,46.05409 231.41677,62.99143 331.44597,35.44524 -16.91326,22.7325 -53.73129,56.49918 -58.1745,59.07902 z m 21.19831,1.38842 c 50.04921,-49.32155 52.87339,-51.94549 87.46619,-99.64769 0,0 -27.22526,-37.5991 -56.23731,-46.81998 -31.3966,103.56258 -214.22131,100.85418 -221.18323,1.23417 31.79917,70.70183 150.07478,75.66557 168.01037,-17.14071 -129.99241,-28.35218 -235.54691,36.87278 -299.03091,47.20513 -63.48401,10.33232 -93.79959,5.41097 -144.056825,-27.00944 71.308045,13.97594 82.973315,15.5537 150.446655,-2.30328 67.47338,-17.85699 301.68866,-152.1715121 449.55336,46.8879 -28.88321,40.58268 -61.60161,71.35053 -134.9683,97.5939 z"
     id="path2987"
     inkscape:connector-curvature="0"
     sodipodi:nodetypes="ccccccccczczcc" />
</svg>